<?xml version="1.0" encoding="utf-8"?>
<!-- Generator: Adobe Illustrator 21.1.0, SVG Export Plug-In . SVG Version: 6.00 Build 0)  -->
<svg version="1.1" id="Слой_1" xmlns="http://www.w3.org/2000/svg" xmlns:xlink="http://www.w3.org/1999/xlink" x="0px" y="0px"
	 viewBox="0 0 50 50" style="enable-background:new 0 0 50 50;" xml:space="preserve">
<style type="text/css">
	.st0{fill-rule:evenodd;clip-rule:evenodd;fill:#6562E8;}
	.st1{fill-rule:evenodd;clip-rule:evenodd;fill:#FFFFFF;}
</style>
<g>
	<g>
		<g>
			<path class="st0" d="M10.3,49.1h29.5c2.2,0,4-1.8,4-4V8.9H11.1C9.5,8.9,8.2,7.6,8.2,6v0c0-1.6,1.3-2.9,2.9-2.9h32.6V1.6H10.3
				c-2.2,0-4,1.8-4,4v39.5C6.3,47.3,8.1,49.1,10.3,49.1z"/>
			<path class="st1" d="M20.2,22.6h10.4c0.7,0,1.2,0.5,1.2,1.2v10.3c0,0.5-0.3,0.9-0.7,1.1c-0.5,0.2-1,0.1-1.3-0.3l-4.4-4.4L21.1,35
				c-0.4,0.4-0.9,0.5-1.3,0.3C19.3,35,19,34.6,19,34.1V23.8C19,23.1,19.5,22.6,20.2,22.6z"/>
		</g>
	</g>
</g>
</svg>
