<?xml version="1.0" encoding="utf-8"?>
<!-- Generator: Adobe Illustrator 21.1.0, SVG Export Plug-In . SVG Version: 6.00 Build 0)  -->
<svg version="1.1" id="Слой_1" xmlns="http://www.w3.org/2000/svg" xmlns:xlink="http://www.w3.org/1999/xlink" x="0px" y="0px"
	 viewBox="0 0 20.7 26.8" style="enable-background:new 0 0 20.7 26.8;" xml:space="preserve">
<style type="text/css">
	.st0{fill-rule:evenodd;clip-rule:evenodd;fill:#6562E8;}
	.st1{fill-rule:evenodd;clip-rule:evenodd;fill:#FFFFFF;}
</style>
<g>
	<g>
		<g>
			<path class="st0" d="M2.7,26.1h15c1.1,0,2-0.9,2-2V5.6H3.1C2.3,5.6,1.7,5,1.7,4.1v0c0-0.8,0.7-1.5,1.5-1.5h16.6V1.9h-17
				c-1.1,0-2,0.9-2,2V24C0.7,25.2,1.6,26.1,2.7,26.1z"/>
			<path class="st1" d="M7.9,12h6.6c0.4,0,0.8,0.2,0.8,0.5v4.2c0,0.2-0.2,0.4-0.5,0.5c-0.3,0.1-6.9,0.1-7.2,0
				c-0.3-0.1-0.5-0.3-0.5-0.5v-4.2C7.1,12.2,7.5,12,7.9,12z"/>
		</g>
	</g>
</g>
</svg>
