<svg xmlns="http://www.w3.org/2000/svg" width="110.95mm" height="75.95mm" viewBox="0 0 314.5 215.3">
  <defs>
    <style>
      .a, .h, .i {
        isolation: isolate;
      }

      .b {
        fill: #4242c6;
      }

      .c {
        fill: #6562e8;
      }

      .d {
        fill: #4646d3;
      }

      .e {
        fill: #fdf2dc;
      }

      .f {
        fill: #2c2cc6;
      }

      .g {
        fill: #dbcdb0;
      }

      .h {
        fill: #cabd9a;
        opacity: 0.55;
      }

      .i {
        fill: #b2a383;
        opacity: 0.49;
      }

      .j {
        fill: #ffce55;
      }

      .k {
        fill: #ffb229;
      }

      .l {
        fill: #239b8c;
      }

      .m {
        fill: #1e7068;
      }

      .n {
        fill: #155951;
      }

      .o {
        fill: #ff5850;
      }

      .p {
        fill: #ed482e;
      }

      .q {
        fill: #bc422e;
      }
    </style>
  </defs>
  <title>25736243_70983899</title>
  <g>
    <g class="a">
      <path class="b" d="M92.8,317.5h9.9c4.6,0,7.9.7,9.9,2a7,7,0,0,1,3.1,6.3,7.93,7.93,0,0,1-1.5,4.9,6.4,6.4,0,0,1-4.3,2.4v.2a8.59,8.59,0,0,1,5.2,2.6,8,8,0,0,1,1.7,5.3,8.44,8.44,0,0,1-3.1,7c-2.1,1.7-5,2.5-8.7,2.5H93V317.5Zm5.4,13.8h5.2a9.26,9.26,0,0,0,5-1.1,4.21,4.21,0,0,0,1.6-3.7,3.72,3.72,0,0,0-1.7-3.4c-1.1-.7-2.9-1-5.4-1H98.2Zm0,4.4v10.6H104a8.5,8.5,0,0,0,5.2-1.3,4.78,4.78,0,0,0,1.7-4.1,4.58,4.58,0,0,0-1.8-3.9,9.75,9.75,0,0,0-5.4-1.3H98.2Z" transform="translate(-92.8 -136)"/>
      <path class="b" d="M153.1,334.1c0,5.4-1.4,9.6-4.1,12.6s-6.6,4.5-11.5,4.5-8.9-1.5-11.6-4.5-4-7.2-4-12.7,1.4-9.7,4.1-12.7,6.6-4.4,11.6-4.4,8.8,1.5,11.5,4.5S153.1,328.7,153.1,334.1Zm-25.4,0c0,4.1.8,7.2,2.5,9.3a8.91,8.91,0,0,0,7.4,3.2c3.2,0,5.7-1,7.3-3.1s2.5-5.2,2.5-9.4-.8-7.2-2.4-9.3-4.1-3.2-7.3-3.2a8.91,8.91,0,0,0-7.4,3.2C128.5,327,127.7,330.1,127.7,334.1Z" transform="translate(-92.8 -136)"/>
      <path class="b" d="M189.9,334.1c0,5.4-1.4,9.6-4.1,12.6s-6.6,4.5-11.5,4.5-8.9-1.5-11.6-4.5-4-7.2-4-12.7,1.4-9.7,4.1-12.7,6.6-4.4,11.6-4.4,8.8,1.5,11.5,4.5S189.9,328.7,189.9,334.1Zm-25.4,0c0,4.1.8,7.2,2.5,9.3a8.91,8.91,0,0,0,7.4,3.2c3.2,0,5.7-1,7.3-3.1s2.5-5.2,2.5-9.4-.8-7.2-2.4-9.3-4.1-3.2-7.3-3.2a8.91,8.91,0,0,0-7.4,3.2C165.3,327,164.5,330.1,164.5,334.1Z" transform="translate(-92.8 -136)"/>
      <path class="b" d="M222.5,350.9h-6.3l-10.5-15.1-3.2,2.6v12.5H197V317.6h5.4v15.9c1.5-1.8,3-3.6,4.4-5.3l9-10.6H222c-5.8,6.8-10,11.7-12.5,14.6Z" transform="translate(-92.8 -136)"/>
      <path class="b" d="M258.2,341.8a8.51,8.51,0,0,1-3.2,7c-2.1,1.7-5.1,2.5-8.9,2.5a20.82,20.82,0,0,1-9.3-1.8v-5.2a24.79,24.79,0,0,0,4.8,1.7,21,21,0,0,0,4.8.6,7.89,7.89,0,0,0,4.8-1.2,4,4,0,0,0,1.5-3.3,4.48,4.48,0,0,0-1.4-3.2c-.9-.9-2.9-1.9-5.8-3.1s-5.2-2.6-6.4-4.2a9.3,9.3,0,0,1-1.9-5.7,8,8,0,0,1,3-6.6,12.31,12.31,0,0,1,8-2.4,23,23,0,0,1,9.5,2.1l-1.7,4.4a22,22,0,0,0-7.9-1.9,5.8,5.8,0,0,0-4,1.2,3.89,3.89,0,0,0-1.4,3,4.77,4.77,0,0,0,.5,2.2,5.92,5.92,0,0,0,1.8,1.7,31.28,31.28,0,0,0,4.5,2.2,32.31,32.31,0,0,1,5.4,2.8,8.72,8.72,0,0,1,2.5,3A10.13,10.13,0,0,1,258.2,341.8Z" transform="translate(-92.8 -136)"/>
      <path class="b" d="M283.5,350.9H264.7V317.6h18.8v4.6H270.1v9.1h12.6v4.6H270.1v10.5h13.4Z" transform="translate(-92.8 -136)"/>
      <path class="b" d="M311.4,350.9l-3.3-9.3H295.4l-3.3,9.3h-5.7l12.5-33.5h5.9l12.5,33.5Zm-4.8-14-3.1-9.1c-.2-.6-.5-1.6-.9-2.9a28.25,28.25,0,0,1-.8-2.9,45.09,45.09,0,0,1-1.8,6.1l-3,8.7h9.6Z" transform="translate(-92.8 -136)"/>
      <path class="b" d="M327,337.5v13.3h-5.4V317.5H331c4.3,0,7.5.8,9.5,2.4s3.1,4,3.1,7.3c0,4.1-2.2,7.1-6.5,8.9l9.4,14.7h-6.2l-8-13.3Zm0-4.5h3.8c2.5,0,4.4-.5,5.5-1.4a5.14,5.14,0,0,0,1.7-4.2,4.71,4.71,0,0,0-1.8-4.1,10.36,10.36,0,0,0-5.6-1.2H327Z" transform="translate(-92.8 -136)"/>
      <path class="b" d="M365.6,321.7a9.09,9.09,0,0,0-7.4,3.3c-1.8,2.2-2.7,5.3-2.7,9.2,0,4.1.9,7.2,2.6,9.3s4.2,3.1,7.5,3.1a18.4,18.4,0,0,0,4.1-.4,35.92,35.92,0,0,0,4.1-1.1v4.7a24.79,24.79,0,0,1-8.9,1.5c-4.9,0-8.6-1.5-11.2-4.4s-3.9-7.2-3.9-12.7a20,20,0,0,1,1.9-9.1,13.92,13.92,0,0,1,5.5-6,16.49,16.49,0,0,1,8.5-2.1,21.23,21.23,0,0,1,9.4,2.1l-2,4.5a30,30,0,0,0-3.6-1.4A16,16,0,0,0,365.6,321.7Z" transform="translate(-92.8 -136)"/>
      <path class="b" d="M407.3,350.9h-5.5v-15H386.4v15H381V317.6h5.4v13.6h15.4V317.6h5.5Z" transform="translate(-92.8 -136)"/>
    </g>
    <g>
      <g>
        <g>
          <path class="c" d="M340.1,209l-75.2,75.2a14.91,14.91,0,0,1-21.2,0l-20.3-20.3a16.48,16.48,0,0,1,0-23.4l74.1-74.1a8.09,8.09,0,0,1,11.5,0L326.6,184l-1.2,1.4a19.9,19.9,0,0,0,5,8c4.5,4.3,7.7,4.7,7.7,4.7l1.5-1.2.7.7A8.15,8.15,0,0,1,340.1,209Z" transform="translate(-92.8 -136)"/>
          <path class="d" d="M236.3,260.1l-15.9-15.9a16.42,16.42,0,0,0,2.9,19.5L239.6,280l4.1,4.1a15.09,15.09,0,0,0,21.2,0l75.2-75.2a8.09,8.09,0,0,0,0-11.5l-.8-.8L338,198s-3.5-.6-7.8-4.9a17.64,17.64,0,0,1-4.9-8l1.3-1.2-2.8-2.9-79,79A5.92,5.92,0,0,1,236.3,260.1Z" transform="translate(-92.8 -136)"/>
          <path class="e" d="M248.1,262.3a9.11,9.11,0,0,0,0,12.8h0a9.11,9.11,0,0,0,12.8,0l77.1-77a18.28,18.28,0,0,1-7.8-4.9,19.93,19.93,0,0,1-5-7.9Z" transform="translate(-92.8 -136)"/>
          <path class="f" d="M264.9,284.2,340.1,209a7.94,7.94,0,0,0,2.2-4l-80,79.5c-7,5.8-18.6-.3-18.6-.3A15.09,15.09,0,0,0,264.9,284.2Z" transform="translate(-92.8 -136)"/>
          <path class="g" d="M250.3,276.8Z" transform="translate(-92.8 -136)"/>
          <path class="g" d="M249.2,276.1c-.1,0-.1-.1-.2-.1C249.1,276,249.2,276,249.2,276.1Z" transform="translate(-92.8 -136)"/>
          <path class="e" d="M250.3,276.8a6.73,6.73,0,0,1-1.1-.7A10.54,10.54,0,0,1,250.3,276.8Z" transform="translate(-92.8 -136)"/>
          <path class="e" d="M249,276c-.3-.3-.7-.5-1-.8A3.92,3.92,0,0,1,249,276Z" transform="translate(-92.8 -136)"/>
          <path class="h" d="M330.2,193.2a18.93,18.93,0,0,1-4.9-8L248,262.3a9.11,9.11,0,0,0,0,12.8h0a3.92,3.92,0,0,0,1,.8c.1,0,.1.1.2.1.4.2.7.5,1.1.7h0l81.8-81.8A13.75,13.75,0,0,1,330.2,193.2Z" transform="translate(-92.8 -136)"/>
          <path class="i" d="M248.2,265.8c.1.1.2.1.4.1s.3,0,.4-.1l77.6-77.6c-.2-.3-.3-.6-.5-.9l-77.8,77.8A.43.43,0,0,0,248.2,265.8Z" transform="translate(-92.8 -136)"/>
          <path class="i" d="M247.3,270.3c.1.1.2.1.4.1s.3,0,.4-.1l79.8-79.8a5.55,5.55,0,0,0-.6-.8l-80,79.9C247.1,269.7,247.1,270.1,247.3,270.3Z" transform="translate(-92.8 -136)"/>
          <path class="i" d="M251.8,269.5c.1.1.2.1.4.1s.3,0,.4-.1l77-77c-.2-.3-.5-.5-.7-.8l-77,77C251.6,269,251.6,269.3,251.8,269.5Z" transform="translate(-92.8 -136)"/>
          <path class="i" d="M250.8,274.2c.1.1.2.1.4.1s.3,0,.4-.1l79.8-79.9a4.62,4.62,0,0,1-.7-.7l-79.8,79.9A.43.43,0,0,0,250.8,274.2Z" transform="translate(-92.8 -136)"/>
          <path class="i" d="M255.8,273.5c.1.1.2.1.4.1a.6.6,0,0,0,.4-.1l77-77.5c-.3-.2-.5-.4-.8-.6l-76.9,77.4A.43.43,0,0,0,255.8,273.5Z" transform="translate(-92.8 -136)"/>
          <path class="i" d="M257.6,274.5a.48.48,0,0,0,0,.7c.1.1.2.1.4.1a.6.6,0,0,0,.4-.1l77.8-77.8a4.05,4.05,0,0,1-.9-.5Z" transform="translate(-92.8 -136)"/>
        </g>
        <g>
          <path class="j" d="M267.9,254.1s-2.9,2.9-5.7,5.8c-2.7,2.7-5.3,5.4-5.2,5.4l19.2,19.2.9-9.7v-.3l10-1.1Z" transform="translate(-92.8 -136)"/>
          <path class="k" d="M257,265.2l19.2,19.2.9-9.7-14.8-14.8C259.5,262.5,256.9,265.2,257,265.2Z" transform="translate(-92.8 -136)"/>
        </g>
      </g>
      <g>
        <path class="l" d="M282.5,216.6l-43,43a14.91,14.91,0,0,1-21.2,0L198,239.2a16.48,16.48,0,0,1,0-23.4l41.9-41.9a8.09,8.09,0,0,1,11.5,0L269,191.5l-1.2,1.4a19.9,19.9,0,0,0,5,8c4.5,4.3,7.7,4.7,7.7,4.7l1.5-1.2.7.7A8.48,8.48,0,0,1,282.5,216.6Z" transform="translate(-92.8 -136)"/>
        <path class="m" d="M210.9,235.5,195,219.6a16.42,16.42,0,0,0,2.9,19.5l16.3,16.3,4.1,4.1a14.91,14.91,0,0,0,21.2,0l43-43a8.09,8.09,0,0,0,0-11.5l-.8-.8-1.3,1.4s-3.5-.6-7.8-4.9a17.64,17.64,0,0,1-4.9-8l1.3-1.2-2.8-2.9-46.8,46.8A6,6,0,0,1,210.9,235.5Z" transform="translate(-92.8 -136)"/>
        <path class="e" d="M222.7,237.7a9.11,9.11,0,0,0,0,12.8h0a9.11,9.11,0,0,0,12.8,0l44.9-44.7a18.28,18.28,0,0,1-7.8-4.9,19.93,19.93,0,0,1-5-7.9Z" transform="translate(-92.8 -136)"/>
        <path class="n" d="M239.5,259.5l43-43a7.94,7.94,0,0,0,2.2-4l-47.8,47.3c-7,5.8-18.6-.3-18.6-.3A14.91,14.91,0,0,0,239.5,259.5Z" transform="translate(-92.8 -136)"/>
        <path class="g" d="M224.9,252.1Z" transform="translate(-92.8 -136)"/>
        <path class="g" d="M223.9,251.5c-.1,0-.1-.1-.2-.1A.31.31,0,0,1,223.9,251.5Z" transform="translate(-92.8 -136)"/>
        <path class="e" d="M224.9,252.1a6.73,6.73,0,0,1-1.1-.7C224.2,251.7,224.6,251.9,224.9,252.1Z" transform="translate(-92.8 -136)"/>
        <path class="e" d="M223.7,251.3c-.3-.3-.7-.5-1-.8A3.92,3.92,0,0,0,223.7,251.3Z" transform="translate(-92.8 -136)"/>
        <path class="h" d="M272.6,200.8a18.93,18.93,0,0,1-4.9-8l-45,44.8a9.11,9.11,0,0,0,0,12.8h0a3.92,3.92,0,0,0,1,.8c.1,0,.1.1.2.1.4.2.7.5,1.1.7h0l49.6-49.6A7,7,0,0,1,272.6,200.8Z" transform="translate(-92.8 -136)"/>
        <path class="i" d="M222.8,241.2c.1.1.2.1.4.1s.3,0,.4-.1l45.3-45.3c-.2-.3-.3-.6-.5-.9l-45.6,45.6C222.6,240.7,222.6,241,222.8,241.2Z" transform="translate(-92.8 -136)"/>
        <path class="i" d="M221.9,245.6c.1.1.2.1.4.1s.3,0,.4-.1L270.3,198a5.55,5.55,0,0,0-.6-.8L222,244.9A.43.43,0,0,0,221.9,245.6Z" transform="translate(-92.8 -136)"/>
        <path class="i" d="M226.5,244.9c.1.1.2.1.4.1s.3,0,.4-.1L272,200.2c-.2-.3-.5-.5-.7-.8l-44.8,44.8A.48.48,0,0,0,226.5,244.9Z" transform="translate(-92.8 -136)"/>
        <path class="i" d="M225.4,249.6c.1.1.2.1.4.1s.3,0,.4-.1l47.6-47.7a4.62,4.62,0,0,1-.7-.7l-47.5,47.6C225.2,249.1,225.2,249.4,225.4,249.6Z" transform="translate(-92.8 -136)"/>
        <path class="i" d="M230.5,248.9c.1.1.2.1.4.1a.6.6,0,0,0,.4-.1l44.8-45.2c-.3-.2-.5-.4-.8-.6l-44.7,45.1A.43.43,0,0,0,230.5,248.9Z" transform="translate(-92.8 -136)"/>
        <path class="i" d="M232.2,249.9a.48.48,0,0,0,0,.7c.1.1.2.1.4.1s.3,0,.4-.1L278.6,205a4.05,4.05,0,0,1-.9-.5Z" transform="translate(-92.8 -136)"/>
      </g>
      <g>
        <path class="o" d="M246.9,181l-43,43a14.91,14.91,0,0,1-21.2,0l-20.3-20.3a16.48,16.48,0,0,1,0-23.4l41.9-41.9a8.09,8.09,0,0,1,11.5,0L233.4,156l-1.2,1.4a19.91,19.91,0,0,0,5,8c4.5,4.3,7.7,4.7,7.7,4.7l1.5-1.2.7.7A8.15,8.15,0,0,1,246.9,181Z" transform="translate(-92.8 -136)"/>
        <path class="p" d="M175.4,199.9,159.5,184a16.42,16.42,0,0,0,2.9,19.5l16.3,16.3,4.1,4.1a14.91,14.91,0,0,0,21.2,0l43-43a8.09,8.09,0,0,0,0-11.5l-.8-.8-1.3,1.4s-3.5-.6-7.8-4.9a17.64,17.64,0,0,1-4.9-8l1.3-1.2-2.8-2.9-46.8,46.8A6,6,0,0,1,175.4,199.9Z" transform="translate(-92.8 -136)"/>
        <path class="e" d="M187.1,202.1a9.11,9.11,0,0,0,0,12.8h0a9.11,9.11,0,0,0,12.8,0l44.9-44.7a18.28,18.28,0,0,1-7.8-4.9,19.93,19.93,0,0,1-5-7.9Z" transform="translate(-92.8 -136)"/>
        <path class="q" d="M203.9,224l43-43a7.94,7.94,0,0,0,2.2-4l-47.8,47.3c-7,5.8-18.6-.3-18.6-.3A15.09,15.09,0,0,0,203.9,224Z" transform="translate(-92.8 -136)"/>
        <path class="g" d="M189.4,216.6Z" transform="translate(-92.8 -136)"/>
        <path class="g" d="M188.3,215.9c-.1,0-.1-.1-.2-.1A.31.31,0,0,1,188.3,215.9Z" transform="translate(-92.8 -136)"/>
        <path class="e" d="M189.4,216.6a6.73,6.73,0,0,1-1.1-.7A10.55,10.55,0,0,0,189.4,216.6Z" transform="translate(-92.8 -136)"/>
        <path class="e" d="M188.1,215.7c-.3-.3-.7-.5-1-.8A3.91,3.91,0,0,0,188.1,215.7Z" transform="translate(-92.8 -136)"/>
        <path class="h" d="M237,165.3a18.93,18.93,0,0,1-4.9-8l-45,44.8a9.11,9.11,0,0,0,0,12.8h0a3.92,3.92,0,0,0,1,.8c.1,0,.1.1.2.1.4.2.7.5,1.1.7h0L239,166.9A14,14,0,0,1,237,165.3Z" transform="translate(-92.8 -136)"/>
        <path class="i" d="M187.2,205.6c.1.1.2.1.4.1s.3,0,.4-.1l45.3-45.3c-.2-.3-.3-.6-.5-.9L187.2,205C187,205.1,187,205.4,187.2,205.6Z" transform="translate(-92.8 -136)"/>
        <path class="i" d="M186.3,210c.1.1.2.1.4.1s.3,0,.4-.1l47.6-47.6a5.55,5.55,0,0,0-.6-.8l-47.7,47.7C186.1,209.5,186.1,209.9,186.3,210Z" transform="translate(-92.8 -136)"/>
        <path class="i" d="M190.9,209.3c.1.1.2.1.4.1a.6.6,0,0,0,.4-.1l44.7-44.7c-.2-.3-.5-.5-.7-.8l-44.8,44.8A.48.48,0,0,0,190.9,209.3Z" transform="translate(-92.8 -136)"/>
        <path class="i" d="M189.8,214c.1.1.2.1.4.1s.3,0,.4-.1l47.6-47.7a4.62,4.62,0,0,1-.7-.7L190,213.2A.68.68,0,0,0,189.8,214Z" transform="translate(-92.8 -136)"/>
        <path class="i" d="M194.9,213.3c.1.1.2.1.4.1a.6.6,0,0,0,.4-.1l44.8-45.2c-.3-.2-.5-.4-.8-.6L195,212.6A.43.43,0,0,0,194.9,213.3Z" transform="translate(-92.8 -136)"/>
        <path class="i" d="M196.6,214.3a.48.48,0,0,0,0,.7c.1.1.2.1.4.1s.3,0,.4-.1L243,169.4a4.05,4.05,0,0,1-.9-.5Z" transform="translate(-92.8 -136)"/>
      </g>
    </g>
  </g>
</svg>
