<?xml version="1.0" encoding="utf-8"?>
<!-- Generator: Adobe Illustrator 21.1.0, SVG Export Plug-In . SVG Version: 6.00 Build 0)  -->
<svg version="1.1" id="Слой_1" xmlns="http://www.w3.org/2000/svg" xmlns:xlink="http://www.w3.org/1999/xlink" x="0px" y="0px"
	 viewBox="0 0 500 500" style="enable-background:new 0 0 500 500;" xml:space="preserve">
<style type="text/css">
	.st0{fill:#EBEBEB;}
	.st1{fill:#E0E0E0;}
	.st2{fill:#F5F5F5;}
	.st3{fill:#FFFFFF;}
	.st4{opacity:0.6;}
	.st5{fill:#FAFAFA;}
	.st6{opacity:0.6;fill:#FAFAFA;enable-background:new    ;}
	.st7{opacity:0.3;fill:#E0E0E0;enable-background:new    ;}
	.st8{opacity:0.9;fill:#FFFFFF;enable-background:new    ;}
	.st9{fill:#F0F0F0;}
	.st10{opacity:0.4;fill:#FFFFFF;enable-background:new    ;}
	.st11{display:none;}
	.st12{display:inline;}
	.st13{fill:#407BFF;}
	.st14{opacity:0.9;}
	.st15{opacity:0.5;fill:#FFFFFF;enable-background:new    ;}
	.st16{fill:#6562E8;}
	.st17{opacity:0.2;fill:#FFFFFF;enable-background:new    ;}
	.st18{fill:#4646D3;}
	.st19{opacity:0.1;fill:#FFFFFF;enable-background:new    ;}
	.st20{fill:#2C2CC6;}
</style>
<g id="Background_Complete">
	<g>
		<rect y="382.4" class="st0" width="500" height="0.3"/>
		<rect x="52.5" y="398.5" class="st0" width="33.1" height="0.3"/>
		<rect x="135.3" y="401.2" class="st0" width="44.5" height="0.3"/>
		<rect x="86.6" y="389.2" class="st0" width="70.4" height="0.3"/>
		<rect x="437.2" y="390.9" class="st0" width="12.7" height="0.3"/>
		<rect x="391.5" y="390.9" class="st0" width="36.8" height="0.3"/>
		<rect x="277.2" y="395.1" class="st0" width="31.1" height="0.3"/>
		<path class="st0" d="M237,337.8H43.9c-3.1,0-5.7-2.6-5.7-5.7V60.7c0-3.1,2.6-5.7,5.7-5.7H237c3.1,0,5.7,2.6,5.7,5.7v271.4
			C242.7,335.2,240.2,337.8,237,337.8z M43.9,55.2c-3,0-5.5,2.4-5.5,5.5v271.4c0,3,2.4,5.5,5.5,5.5H237c3,0,5.5-2.4,5.5-5.5V60.7
			c0-3-2.4-5.5-5.5-5.5L43.9,55.2L43.9,55.2z"/>
		<path class="st0" d="M453.3,337.8H260.2c-3.1,0-5.7-2.6-5.7-5.7V60.7c0-3.1,2.6-5.7,5.7-5.7h193.1c3.1,0,5.7,2.6,5.7,5.7v271.4
			C459,335.2,456.5,337.8,453.3,337.8z M260.2,55.2c-3,0-5.5,2.4-5.5,5.5v271.4c0,3,2.4,5.5,5.5,5.5h193.1c3,0,5.5-2.4,5.5-5.5V60.7
			c0-3-2.4-5.5-5.5-5.5L260.2,55.2L260.2,55.2z"/>
	</g>
	<g>
		<g>
			<rect x="54.1" y="68.7" class="st0" width="263.4" height="214.3"/>
			<rect x="317.6" y="68.7" class="st1" width="1.6" height="214.3"/>
			<rect x="67.1" y="81.7" class="st2" width="237.5" height="188.3"/>
			<polygon class="st3" points="175.3,270 207.1,270 154,81.7 122.1,81.7 			"/>
			<polygon class="st3" points="149.7,270 168.1,270 115,81.7 96.6,81.7 			"/>
			<polygon class="st3" points="251.9,270 259.5,270 206.4,81.7 198.7,81.7 			"/>
		</g>
		<g>
			<g>
				<g>
					<path class="st1" d="M425.9,374.2h-278c-4,0-7.2-3.3-7.1-7.4l6.6-198.8c0.1-4,3.6-7.4,7.6-7.4h278c4,0,7.2,3.3,7.1,7.4
						l-6.6,198.8C433.4,370.9,429.9,374.2,425.9,374.2z"/>
				</g>
				<g class="st4">
					<g>
						<path class="st5" d="M423.6,374.2h-278c-4,0-7.2-3.3-7.1-7.4L145,168c0.1-4,3.6-7.4,7.6-7.4h278c4,0,7.2,3.3,7.1,7.4
							l-6.6,198.8C431.1,370.9,427.7,374.2,423.6,374.2z"/>
					</g>
				</g>
				<g>
					<g>
						<path class="st1" d="M420,373.8H84.2c-3.5,0-6.5,2-7.9,5c-0.8,1.7,0.4,3.6,2.3,3.6h347c1.9,0,3.1-1.9,2.3-3.6
							C426.6,375.9,423.5,373.8,420,373.8z"/>
					</g>
					<path class="st6" d="M84.2,373.8h268c3.5,0,6.5,2,7.9,5c0.8,1.7-0.4,3.6-2.3,3.6H78.6c-1.9,0-3.1-1.9-2.3-3.6
						C77.7,375.9,80.7,373.8,84.2,373.8z"/>
					<path class="st7" d="M244.4,379.3h-69.7c-1.7,0-3.1,1.4-3.1,3.1h76C247.5,380.7,246.1,379.3,244.4,379.3z"/>
				</g>
				<path class="st8" d="M145.1,359.6l6.1-184.4c0.1-1.6,1.4-2.9,3-2.9h274.2c1.6,0,2.8,1.3,2.8,2.9L425,359.6
					c-0.1,1.6-1.4,2.9-3,2.9H147.9C146.3,362.5,145.1,361.2,145.1,359.6z"/>
				<path class="st9" d="M152.4,351.8l5.6-168.9c0.1-1.9,1.7-3.5,3.6-3.5h258.7c2,0,3.7,1.7,3.6,3.7L418.3,352
					c-0.1,1.9-1.7,3.5-3.6,3.5H156C153.9,355.5,152.3,353.8,152.4,351.8z"/>
				<polygon class="st3" points="363.4,362.5 408.9,362.5 356.5,172.4 311.1,172.4 				"/>
				<polygon class="st3" points="334.5,362.5 350.8,362.5 298.5,172.4 282.1,172.4 				"/>
				<polygon class="st3" points="241.4,362.5 257.8,362.5 205.4,172.4 189,172.4 				"/>
				<path class="st10" d="M293.6,281.2c0,1.2-1,2.2-2.2,2.2s-2.1-1-2.1-2.2c0-1.2,1-2.2,2.2-2.2C292.7,279,293.7,280,293.6,281.2z"
					/>
			</g>
		</g>
	</g>
</g>
<g id="Background_Simple" class="st11">
	<g class="st12">
		<g>
			<path class="st13" d="M174.4,355.5c55,1.2,105.6-37.2,142.6-76.5C472.8,141.5,294.8,20,172.1,74.2
				C49.4,128.3,7.8,351.6,174.4,355.5z"/>
		</g>
		<g class="st14">
			<path class="st3" d="M174.4,355.5c55,1.2,105.6-37.2,142.6-76.5C472.8,141.5,294.8,20,172.1,74.2
				C49.4,128.3,7.8,351.6,174.4,355.5z"/>
		</g>
	</g>
</g>
<g id="Shadow_1_">
	<ellipse id="_x3C_Path_x3E__122_" class="st2" cx="250" cy="416.2" rx="193.9" ry="11.3"/>
</g>
<g id="Cat">
	<g>
		<path class="st15" d="M158,287.8c-43.8-43.8-43.8-114.7,0-158.5c43.8-43.8,114.7-43.8,158.5,0c43.8,43.8,43.8,114.7,0,158.5
			C272.7,331.5,201.8,331.5,158,287.8z"/>
		<g>
			<g>
				<path class="st16" d="M262.8,151.2c3-3.9,6.2-8.1,11.7-13.5c2.9-2.8,11.9-8.8,15.3-10c2.6-0.9,7.6,12.8,7.6,21.3
					c0,8-2.9,31.7-2.9,31.7L262.8,151.2z"/>
				<path class="st17" d="M269.2,159.4c5.7-0.8,13.9-11.6,19.3-17.1c5.4-5.5,6,3,5.1,13.9c-0.5,5.4-1.7,11.7-3.4,14.7
					c-0.6,1-2.1,1-2.8,0.1C283.6,166.4,276.4,161.3,269.2,159.4z"/>
				<path class="st16" d="M301.5,306c-2.1,1.4-4.3,2.7-6.5,4c-21.6,12.4-46.4,17.2-70.4,14.6c-21.5-2.3-42.4-10.6-60.1-24.8
					c5-8.5,8.9-15.3,10.6-19.2c7-16.1,10.7-18.3,11.1-32.3c0.5-14-6.1-30.1-7.8-44.4c11.4-5.4,109.8,27.2,109.8,27.2
					c-9.5,19.5,6.3,34.6,10,43.5C302.7,285.1,302.7,295.6,301.5,306z"/>
				<path class="st16" d="M306.2,203.6c2.1,1.1,3.4,3.8,3.4,3.8s-0.2-10-5.6-17.9c-5.6-8.1-9.8-10.7-14.8-20.4
					c-5.2-10-17-22.1-33.2-23.3c-16.2-1.3-54.9-3.4-68.9,21.4c-4.1,7.3-6.6,14.2-7.9,20.7c-5.1,8.3-9,23.7-8.8,28.2
					c2.5-3.1,6.2-5.5,6.2-5.5s-2.2,13.8-1.6,21.1c3.3-4,7-6.3,9.5-7.6c6.7,11.9,30.8,29.2,64.7,25.4c27.6-3.1,40-7.3,45.7-16.4
					c1.9-3,3.9-6.8,5.6-10.7c1,0.9,3.1,3.2,4.8,7.6c1.5-7.3-0.4-14.8-0.4-14.8s2.7,2.7,4.1,4.3C309.2,213,308.7,209,306.2,203.6z"/>
				<path class="st18" d="M227.7,177.7c3.7-4.8,11.1-8.5,17.6-2.4C247.4,177.3,243.9,193.5,227.7,177.7z"/>
				<path class="st18" d="M289.4,176c-3.1-4.3-8.7-7.3-13.9-1.9C273.1,176.7,279.7,190.8,289.4,176z"/>
				<path class="st3" d="M274.1,186.3c-9.2-0.4-14.2-0.2-13.4,4.9c0.7,4.2,10.2,9,13.5,7.2C279.2,195.6,281.9,186.6,274.1,186.3z"/>
				<path class="st19" d="M270.6,197.4c-9.1-2.6-26.9-5.2-32.4,4.7c-4.1,7.4-2,14.9,4.3,20.4c6.7,5.8,17.3,11.5,27.9,12.4
					c14.7,1.3,20.9-4.1,24.7-10c5.8-8.8,8.5-23.4-2.8-27.6C285.9,194.9,276.9,196.1,270.6,197.4z"/>
				<path class="st19" d="M295,309.9c-21.6,12.4-46.4,17.2-70.4,14.6c-4-11.7-4.8-26-1.1-40.2c6.3-24.2,27-18.7,37.6-12.7
					c7.4-3.4,17.8-6.8,25.3-1.4C294.7,276.4,296.5,293.1,295,309.9z"/>
				<path class="st18" d="M261.6,212.9c-2.4,0-5.2-0.5-8.1-1.5c-0.4-0.1-0.5-0.5-0.4-0.9s0.5-0.6,0.9-0.4c5.6,1.9,10.1,1.9,13.5,0.1
					c3.9-2.1,4.8-6,4.8-6c0.1-0.3,0.3-0.5,0.6-0.5c0.3,0,0.5,0.1,0.7,0.3c5.8,9.7,12.1,6.5,12.2,6.4c0.3-0.2,0.8,0,0.9,0.3
					c0.2,0.3,0,0.8-0.3,0.9c-0.1,0-7,3.5-13.2-5.8c-0.7,1.5-2.1,3.9-5,5.5C266.2,212.4,264,212.9,261.6,212.9z"/>
				<g>
					<path class="st16" d="M211.9,151.5c-6.2-2.2-11.1-6.5-18.1-13.3c-5.3-5.1-9.5-12.4-14.3-12.8c-3.7-0.3-6.8,12.8-4.7,25.4
						c1.6,9.8,12,34,12,34L211.9,151.5z"/>
					<path class="st17" d="M201.2,154c1.4-0.9,1.4-2.9-0.1-3.8c-5.1-3.1-11.3-9.6-15-14c-4.9-5.8-6.5,4.2-4.4,14.9
						c0.7,3.7,2.5,7.5,4.2,10.4c1.3,2.3,4.6,2.6,6.2,0.4C194.4,159.1,197.6,156.2,201.2,154z"/>
				</g>
			</g>
			<g>
				<path class="st3" d="M296.5,168.1l-84.6,1.8c-0.5,0-0.9-0.4-0.9-0.8l0,0c0-0.5,0.4-0.9,0.8-0.9l84.6-1.8c0.5,0,0.9,0.4,0.9,0.8
					l0,0C297.3,167.7,297,168.1,296.5,168.1z"/>
				<polygon class="st3" points="222.7,188 200.8,188.4 200,168.4 222,167.9 				"/>
				<path class="st18" d="M213.7,178.2c0,1.3-1,2.3-2.3,2.3s-2.3-1-2.3-2.3s1-2.3,2.3-2.3S213.7,176.9,213.7,178.2z"/>
				<path class="st17" d="M222.7,186.8l28.6-0.6c2.3,0,4.1-2,4-4.3l-0.5-13.8l-32.8,0.7L222.7,186.8z"/>
				<g>
					<path class="st3" d="M180.7,188.8l20.1-0.4l-0.8-20l-20,0.4c-1.7,0-3.1,1.5-3,3.2l0.5,13.9C177.6,187.6,179,188.9,180.7,188.8z
						"/>
					<path class="st16" d="M180.7,188.8l20.1-0.4l-0.8-20l-20,0.4c-1.7,0-3.1,1.5-3,3.2l0.5,13.9C177.6,187.6,179,188.9,180.7,188.8
						z"/>
				</g>
			</g>
		</g>
		<g>
			<path class="st16" d="M399.7,350.6c-0.5-2.2-1.4-4-2.6-5.5c-2.6-2.8-5.3-5.4-8.1-8c-2.7-2.6-5.5-5.2-8.3-7.7
				c-2.8-2.6-5.7-5-8.5-7.5c-5.8-4.9-11.7-9.7-17.8-14.3c-2.8-2.1-5.6-4.1-8.5-6.1c1.3-3.7,0.6-7.9-2.4-10.9l-4.2-4.2
				c-0.8-0.8-1.6-1.4-2.5-1.8c37.6-49.1,34-119.6-11-164.6c-48.9-48.9-128.2-48.9-177.1,0s-48.9,128.2,0,177.1
				c44.9,44.9,115.5,48.6,164.6,11c0.5,0.9,1.1,1.7,1.8,2.5l4.2,4.2c2.9,2.9,7.2,3.7,10.9,2.4c2,2.9,4,5.7,6.1,8.5
				c4.6,6.1,9.4,12.1,14.3,17.8c2.5,2.9,5,5.7,7.5,8.5c2.5,2.8,5.1,5.6,7.7,8.3c2.6,2.7,5.2,5.5,8,8.1c1.5,1.2,3.3,2.1,5.5,2.6
				c2.2,0.4,4.8,0.5,8.3-0.3c5.6-1.4,10.2-5.7,11.7-11.7C400.2,355.4,400.1,352.8,399.7,350.6z M154.7,291
				c-45.6-45.6-45.6-119.5,0-165c45.6-45.6,119.5-45.6,165.1,0c45.6,45.6,45.6,119.5,0,165C274.2,336.6,200.3,336.6,154.7,291z"/>
			<g>
				<path class="st18" d="M399.7,350.6c-0.5-2.2-1.4-4-2.6-5.5c-2.6-2.8-5.3-5.4-8.1-8c-2.7-2.6-5.5-5.2-8.3-7.7
					c-2.8-2.6-5.7-5-8.5-7.5c-5.8-4.9-11.7-9.7-17.8-14.3c-2.8-2.1-5.6-4.1-8.5-6.1c1.3-3.7,0.6-7.9-2.4-10.9l-4.2-4.2
					c-0.8-0.8-1.6-1.4-2.5-1.8c37.6-49.1,34-119.6-11-164.6c-48.9-48.9-128.2-48.9-177.1,0s-48.9,128.2,0,177.1
					c44.9,44.9,115.5,48.6,164.6,11c0.5,0.9,1.1,1.7,1.8,2.5l4.2,4.2c2.9,2.9,7.2,3.7,10.9,2.4c2,2.9,4,5.7,6.1,8.5
					c4.6,6.1,9.4,12.1,14.3,17.8c2.5,2.9,5,5.7,7.5,8.5c2.5,2.8,5.1,5.6,7.7,8.3c2.6,2.7,5.2,5.5,8,8.1c1.5,1.2,3.3,2.1,5.5,2.6
					c2.2,0.4,4.8,0.5,8.3-0.3c5.6-1.4,10.2-5.7,11.7-11.7C400.2,355.4,400.1,352.8,399.7,350.6z M154.7,291
					c-45.6-45.6-45.6-119.5,0-165c45.6-45.6,119.5-45.6,165.1,0c45.6,45.6,45.6,119.5,0,165C274.2,336.6,200.3,336.6,154.7,291z"/>
				<path class="st18" d="M399.7-1649.4c-0.5-2.2-1.4-4-2.6-5.5c-2.6-2.8-5.3-5.4-8.1-8c-2.7-2.6-5.5-5.2-8.3-7.7
					c-2.8-2.6-5.7-5-8.5-7.5c-5.8-4.9-11.7-9.7-17.8-14.3c-2.8-2.1-5.6-4.1-8.5-6.1c1.3-3.7,0.6-7.9-2.4-10.9l-4.2-4.2
					c-0.8-0.8-1.6-1.4-2.5-1.8c37.6-49.1,34-119.6-11-164.6c-48.9-48.9-128.2-48.9-177.1,0s-48.9,128.2,0,177.1
					c44.9,44.9,115.5,48.6,164.6,11c0.5,0.9,1.1,1.7,1.8,2.5l4.2,4.2c2.9,2.9,7.2,3.7,10.9,2.4c2,2.9,4,5.7,6.1,8.5
					c4.6,6.1,9.4,12.1,14.3,17.8c2.5,2.9,5,5.7,7.5,8.5c2.5,2.8,5.1,5.6,7.7,8.3c2.6,2.7,5.2,5.5,8,8.1c1.5,1.2,3.3,2.1,5.5,2.6
					c2.2,0.4,4.8,0.5,8.3-0.3c5.6-1.4,10.2-5.7,11.7-11.7C400.2-1644.6,400.1-1647.2,399.7-1649.4z M154.7-1709
					c-45.6-45.6-45.6-119.5,0-165c45.6-45.6,119.5-45.6,165.1,0c45.6,45.6,45.6,119.5,0,165C274.2-1663.4,200.3-1663.4,154.7-1709z"
					/>
				<path class="st20" d="M330.2,317.1l15.6-15.6C345.9,301.5,341.7,313.4,330.2,317.1z"/>
			</g>
			<g>
				<path class="st16" d="M354.3,157c-1.5-3.4-3.2-6.8-4.9-10l0.9-0.5c1.8,3.3,3.5,6.7,5,10.1L354.3,157z M345,139.6
					c-5-7.8-10.8-15-17.3-21.6l0.8-0.8c6.6,6.6,12.5,13.9,17.5,21.7L345,139.6z"/>
				<path class="st18" d="M354.3,157c-1.5-3.4-3.2-6.8-4.9-10l0.9-0.5c1.8,3.3,3.5,6.7,5,10.1L354.3,157z M345,139.6
					c-5-7.8-10.8-15-17.3-21.6l0.8-0.8c6.6,6.6,12.5,13.9,17.5,21.7L345,139.6z"/>
			</g>
		</g>
	</g>
</g>
</svg>
